#N canvas 166 22 1038 756 10;
#X obj 481 407 delwrite~ delLine 2000;
#X msg -79 -134 \; pd dsp 1;
#X msg -15 -133 \; pd dsp 0;
#X text -60 -101 ON;
#X text 2 -100 OFF;
#X obj 653 409 line~;
#X obj 653 293 r D2;
#X text 652 276 when button D2 is 'on' enable when button is 'off'
disable;
#X obj -92 -40 cnv 15 60 22 empty empty empty 20 12 0 14 -253938 -66577
0;
#N canvas 146 163 525 433 serin 0;
#X obj 180 61 cnv 15 15 15 empty \$0-number-canvas 2 4 8 0 14 -233017
-1 0;
#X obj 200 225 s \$0-number-canvas;
#X obj 60 61 hradio 15 1 1 8 empty empty empty 0 -6 0 8 -225271 -1
-1 2;
#X obj 60 13 inlet;
#X msg 200 202 label \$1;
#X obj 200 180 makefilename %d;
#X obj 59 108 int;
#X msg 59 206 open \$1;
#X obj 59 377 outlet;
#X msg 201 306 set \$1 \$2;
#X obj 59 266 trigger bang anything;
#X obj 201 286 list;
#X obj 383 383 outlet;
#X obj 384 22 netreceive 34567;
#X obj 477 43 tgl 15 0 empty empty empty 0 -6 0 10 -262144 -1 -1 0
1;
#X obj 384 41 bng 15 250 50 0 empty empty empty 0 -6 0 10 -262144 -1
-1;
#X obj 187 24 delay 15000;
#X text 345 379 close;
#X text 209 4 for open/close automation in Makefile;
#X obj 184 95 bang;
#X obj 184 137 send ARDUINO_TEST_RESET;
#X msg 184 116 set 0;
#X connect 2 0 6 0;
#X connect 2 0 19 0;
#X connect 3 0 2 0;
#X connect 4 0 1 0;
#X connect 5 0 4 0;
#X connect 6 0 5 0;
#X connect 6 0 7 0;
#X connect 7 0 10 0;
#X connect 9 0 8 0;
#X connect 10 0 8 0;
#X connect 10 1 11 0;
#X connect 11 0 9 0;
#X connect 13 0 15 0;
#X connect 13 1 14 0;
#X connect 15 0 16 0;
#X connect 15 0 12 0;
#X connect 16 0 2 0;
#X connect 19 0 21 0;
#X connect 21 0 20 0;
#X coords 0 -1 1 1 136 17 1 60 60;
#X restore -86 -61 pd serin;
#X text -89 -79 serial port #;
#X msg 6 -38 close;
#X msg -86 -38 open 2;
#X msg -3 -14 devices;
#X msg 653 349 1 10;
#X obj -86 42 makedo;
#X obj 494 -80 r D2;
#X obj 494 -37 tgl 15 0 empty empty empty 17 7 0 10 -262144 -1 -1 1
1;
#X obj 529 -37 tgl 15 0 empty empty empty 17 7 0 10 -262144 -1 -1 1
1;
#X obj 529 -80 r D3;
#X obj 562 -37 tgl 15 0 empty empty empty 17 7 0 10 -262144 -1 -1 1
1;
#X obj 597 -37 tgl 15 0 empty empty empty 17 7 0 10 -262144 -1 -1 1
1;
#X obj 562 -80 r D4;
#X obj 597 -80 r D5;
#X obj 630 -37 tgl 15 0 empty empty empty 17 7 0 10 -262144 -1 -1 1
1;
#X obj 630 -80 r D6;
#N canvas 807 101 499 396 display 0;
#X obj 6 7 inlet;
#X obj 6 28 mapping/resample 100;
#X obj 6 50 outlet;
#X obj 54 50 inlet;
#X obj 54 71 mapping/resample 100;
#X obj 54 93 outlet;
#X obj 103 93 inlet;
#X obj 103 114 mapping/resample 100;
#X obj 103 136 outlet;
#X obj 151 136 inlet;
#X obj 151 157 mapping/resample 100;
#X obj 151 179 outlet;
#X obj 200 179 inlet;
#X obj 200 200 mapping/resample 100;
#X obj 200 222 outlet;
#X obj 247 222 inlet;
#X obj 247 243 mapping/resample 100;
#X obj 247 265 outlet;
#X obj 295 265 inlet;
#X obj 295 286 mapping/resample 100;
#X obj 295 308 outlet;
#X obj 345 308 inlet;
#X obj 345 329 mapping/resample 100;
#X obj 345 351 outlet;
#X obj 60 290 receive ARDUINO_TEST_RESET;
#X connect 0 0 1 0;
#X connect 1 0 2 0;
#X connect 3 0 4 0;
#X connect 4 0 5 0;
#X connect 6 0 7 0;
#X connect 7 0 8 0;
#X connect 9 0 10 0;
#X connect 10 0 11 0;
#X connect 12 0 13 0;
#X connect 13 0 14 0;
#X connect 15 0 16 0;
#X connect 16 0 17 0;
#X connect 18 0 19 0;
#X connect 19 0 20 0;
#X connect 21 0 22 0;
#X connect 22 0 23 0;
#X connect 24 0 22 0;
#X connect 24 0 19 0;
#X connect 24 0 16 0;
#X connect 24 0 13 0;
#X connect 24 0 10 0;
#X connect 24 0 7 0;
#X connect 24 0 4 0;
#X connect 24 0 1 0;
#X restore 108 -35 pd display values without pegging the CPU;
#X obj 108 -78 r A0;
#X floatatom 108 -3 5 0 0 0 - - -;
#X floatatom 142 -3 5 0 0 0 - - -;
#X floatatom 177 -3 5 0 0 0 - - -;
#X floatatom 212 -3 5 0 0 0 - - -;
#X floatatom 246 -3 5 0 0 0 - - -;
#X floatatom 281 -3 5 0 0 0 - - -;
#X floatatom 316 -3 5 0 0 0 - - -;
#X floatatom 351 -3 5 0 0 0 - - -;
#X obj 142 -78 r A1;
#X obj 177 -78 r A2;
#X obj 212 -78 r A3;
#X obj 246 -78 r A4;
#X obj 281 -78 r A5;
#X obj 316 -78 r A6;
#X obj 351 -78 r A7;
#X obj -132 274 md-automap;
#X obj -133 124 r A0;
#X obj -46 223 bng 15 250 50 0 empty empty empty 17 7 0 10 -262144
-1 -1;
#X floatatom -113 233 5 0 0 0 - - -;
#X floatatom -94 210 5 0 0 0 - - -;
#X text -137 106 input data;
#X obj -115 157 loadbang;
#X text -50 243 re-callibrate input;
#X text -106 143 min and max output values;
#X obj -132 302 int;
#X msg 672 374 0 10;
#X msg -113 187 50;
#X msg -76 185 1000;
#X obj 63 290 md-automap;
#X obj 149 239 bng 15 250 50 0 empty empty empty 17 7 0 10 -262144
-1 -1;
#X floatatom 82 249 5 0 0 0 - - -;
#X floatatom 101 226 5 0 0 0 - - -;
#X text 58 122 input data;
#X msg 82 203 0;
#X obj 80 173 loadbang;
#X text 149 177 min and max output values;
#X obj 62 378 s fb-amount;
#X msg 118 201 1;
#X obj 62 140 r A1;
#X obj 465 239 r fb-amount;
#X obj 602 445 *~;
#X obj 395 224 adc~ 1;
#X obj -79 -219 loadbang;
#X obj 653 320 sel 1 0;
#X obj 401 473 dac~;
#X obj -79 -179 del 1000;
#X obj -147 -67 loadbang;
#X obj -145 -45 del 1000;
#X obj -167 359 line \$1 1000;
#X obj -169 385 s del-amount;
#X obj 491 476 vd~ delLine;
#X obj 490 296 line~;
#X obj 485 338 *~;
#X msg 486 265 \$1 200;
#N canvas 759 224 450 300 limitit 0;
#X obj 113 158 *~;
#X obj 88 132 z~ 64;
#X obj 128 131 limiter~ 10;
#X obj 99 84 +~;
#X obj 66 40 inlet~;
#X obj 140 39 inlet~;
#X obj 113 199 outlet~;
#X connect 0 0 6 0;
#X connect 1 0 0 0;
#X connect 2 0 0 1;
#X connect 3 0 1 0;
#X connect 3 0 2 0;
#X connect 4 0 3 0;
#X connect 5 0 3 1;
#X restore 464 368 pd limitit;
#X msg -69 328 \$1 20;
#X obj -67 357 line~;
#X connect 5 0 68 1;
#X connect 6 0 71 0;
#X connect 9 0 12 0;
#X connect 9 1 11 0;
#X connect 11 0 15 0;
#X connect 12 0 15 0;
#X connect 13 0 15 0;
#X connect 14 0 5 0;
#X connect 16 0 17 0;
#X connect 19 0 18 0;
#X connect 22 0 20 0;
#X connect 23 0 21 0;
#X connect 25 0 24 0;
#X connect 26 0 28 0;
#X connect 26 1 29 0;
#X connect 26 2 30 0;
#X connect 26 3 31 0;
#X connect 26 4 32 0;
#X connect 26 5 33 0;
#X connect 26 6 34 0;
#X connect 26 7 35 0;
#X connect 27 0 26 0;
#X connect 36 0 26 1;
#X connect 37 0 26 2;
#X connect 38 0 26 3;
#X connect 39 0 26 4;
#X connect 40 0 26 5;
#X connect 41 0 26 6;
#X connect 42 0 26 7;
#X connect 43 0 52 0;
#X connect 43 0 83 0;
#X connect 44 0 43 0;
#X connect 45 0 43 3;
#X connect 46 0 43 1;
#X connect 47 0 43 2;
#X connect 49 0 54 0;
#X connect 49 0 55 0;
#X connect 52 0 76 0;
#X connect 53 0 5 0;
#X connect 54 0 46 0;
#X connect 55 0 47 0;
#X connect 56 0 64 0;
#X connect 57 0 56 3;
#X connect 58 0 56 1;
#X connect 59 0 56 2;
#X connect 61 0 58 0;
#X connect 62 0 61 0;
#X connect 62 0 65 0;
#X connect 65 0 59 0;
#X connect 66 0 56 0;
#X connect 67 0 81 0;
#X connect 68 0 72 0;
#X connect 68 0 72 1;
#X connect 69 0 82 0;
#X connect 69 0 72 0;
#X connect 69 0 72 1;
#X connect 70 0 73 0;
#X connect 71 0 14 0;
#X connect 71 1 53 0;
#X connect 73 0 1 0;
#X connect 74 0 75 0;
#X connect 75 0 12 0;
#X connect 76 0 77 0;
#X connect 78 0 68 0;
#X connect 78 0 80 0;
#X connect 79 0 80 1;
#X connect 80 0 82 1;
#X connect 81 0 79 0;
#X connect 82 0 0 0;
#X connect 83 0 84 0;
#X connect 84 0 78 0;
