#N canvas 110 0 1187 727 10;
#X msg -91 -144 \; pd dsp 1;
#X msg -25 -143 \; pd dsp 0;
#X text -70 -111 ON;
#X text -8 -110 OFF;
#X obj 483 155 line~;
#X obj 483 39 r D2;
#X text 479 178 when button D2 is 'on' enable when button is 'off'
disable;
#X obj -102 -50 cnv 15 60 22 empty empty empty 20 12 0 14 -253938 -66577
0;
#N canvas 146 163 525 433 serin 0;
#X obj 180 61 cnv 15 15 15 empty \$0-number-canvas 1 4 8 0 14 -233017
-1 0;
#X obj 200 225 s \$0-number-canvas;
#X obj 60 61 hradio 15 1 1 8 empty empty empty 0 -6 0 8 -225271 -1
-1 1;
#X obj 60 13 inlet;
#X msg 200 202 label \$1;
#X obj 200 180 makefilename %d;
#X obj 59 108 int;
#X msg 59 206 open \$1;
#X obj 59 377 outlet;
#X msg 201 306 set \$1 \$2;
#X obj 59 266 trigger bang anything;
#X obj 201 286 list;
#X obj 383 383 outlet;
#X obj 384 22 netreceive 34567;
#X obj 477 43 tgl 15 0 empty empty empty 0 -6 0 10 -262144 -1 -1 0
1;
#X obj 384 41 bng 15 250 50 0 empty empty empty 0 -6 0 10 -262144 -1
-1;
#X obj 187 24 delay 15000;
#X text 345 379 close;
#X text 209 4 for open/close automation in Makefile;
#X obj 184 95 bang;
#X obj 184 137 send ARDUINO_TEST_RESET;
#X msg 184 116 set 0;
#X connect 2 0 6 0;
#X connect 2 0 19 0;
#X connect 3 0 2 0;
#X connect 4 0 1 0;
#X connect 5 0 4 0;
#X connect 6 0 5 0;
#X connect 6 0 7 0;
#X connect 7 0 10 0;
#X connect 9 0 8 0;
#X connect 10 0 8 0;
#X connect 10 1 11 0;
#X connect 11 0 9 0;
#X connect 13 0 15 0;
#X connect 13 1 14 0;
#X connect 15 0 16 0;
#X connect 15 0 12 0;
#X connect 16 0 2 0;
#X connect 19 0 21 0;
#X connect 21 0 20 0;
#X coords 0 -1 1 1 136 17 1 60 60;
#X restore -96 -71 pd serin;
#X text -99 -89 serial port #;
#X msg -4 -48 close;
#X msg -96 -48 open 1;
#X msg -13 -24 devices;
#X msg 483 95 1 10;
#X obj 483 66 sel 0 1;
#X obj -96 4 makedo;
#X obj 484 -90 r D2;
#X obj 484 -47 tgl 15 0 empty empty empty 17 7 0 10 -262144 -1 -1 1
1;
#X obj 519 -47 tgl 15 0 empty empty empty 17 7 0 10 -262144 -1 -1 1
1;
#X obj 519 -90 r D3;
#X obj 552 -47 tgl 15 0 empty empty empty 17 7 0 10 -262144 -1 -1 1
1;
#X obj 587 -47 tgl 15 0 empty empty empty 17 7 0 10 -262144 -1 -1 1
1;
#X obj 552 -90 r D4;
#X obj 587 -90 r D5;
#X obj 620 -47 tgl 15 0 empty empty empty 17 7 0 10 -262144 -1 -1 1
1;
#X obj 620 -90 r D6;
#N canvas 807 101 499 396 display 0;
#X obj 6 7 inlet;
#X obj 6 28 mapping/resample 100;
#X obj 6 50 outlet;
#X obj 54 50 inlet;
#X obj 54 71 mapping/resample 100;
#X obj 54 93 outlet;
#X obj 103 93 inlet;
#X obj 103 114 mapping/resample 100;
#X obj 103 136 outlet;
#X obj 151 136 inlet;
#X obj 151 157 mapping/resample 100;
#X obj 151 179 outlet;
#X obj 200 179 inlet;
#X obj 200 200 mapping/resample 100;
#X obj 200 222 outlet;
#X obj 247 222 inlet;
#X obj 247 243 mapping/resample 100;
#X obj 247 265 outlet;
#X obj 295 265 inlet;
#X obj 295 286 mapping/resample 100;
#X obj 295 308 outlet;
#X obj 345 308 inlet;
#X obj 345 329 mapping/resample 100;
#X obj 345 351 outlet;
#X obj 60 290 receive ARDUINO_TEST_RESET;
#X connect 0 0 1 0;
#X connect 1 0 2 0;
#X connect 3 0 4 0;
#X connect 4 0 5 0;
#X connect 6 0 7 0;
#X connect 7 0 8 0;
#X connect 9 0 10 0;
#X connect 10 0 11 0;
#X connect 12 0 13 0;
#X connect 13 0 14 0;
#X connect 15 0 16 0;
#X connect 16 0 17 0;
#X connect 18 0 19 0;
#X connect 19 0 20 0;
#X connect 21 0 22 0;
#X connect 22 0 23 0;
#X connect 24 0 22 0;
#X connect 24 0 19 0;
#X connect 24 0 16 0;
#X connect 24 0 13 0;
#X connect 24 0 10 0;
#X connect 24 0 7 0;
#X connect 24 0 4 0;
#X connect 24 0 1 0;
#X restore 98 -45 pd display values without pegging the CPU;
#X obj 98 -88 r A0;
#X floatatom 98 -13 5 0 0 0 - - -;
#X floatatom 132 -13 5 0 0 0 - - -;
#X floatatom 167 -13 5 0 0 0 - - -;
#X floatatom 202 -13 5 0 0 0 - - -;
#X floatatom 236 -13 5 0 0 0 - - -;
#X floatatom 271 -13 5 0 0 0 - - -;
#X floatatom 306 -13 5 0 0 0 - - -;
#X floatatom 341 -13 5 0 0 0 - - -;
#X obj 132 -88 r A1;
#X obj 167 -88 r A2;
#X obj 202 -88 r A3;
#X obj 236 -88 r A4;
#X obj 271 -88 r A5;
#X obj 306 -88 r A6;
#X obj 341 -88 r A7;
#X obj 99 205 md-automap;
#X obj 98 55 r A0;
#X floatatom 99 258 5 0 0 0 - - -;
#X obj 185 154 bng 15 250 50 0 empty empty empty 17 7 0 10 -262144
-1 -1;
#X floatatom 118 164 5 0 0 0 - - -;
#X floatatom 137 141 5 0 0 0 - - -;
#X text 94 37 input data;
#X msg 118 118 0;
#X obj 116 88 loadbang;
#X text 202 150 re-callibrate input;
#X text 185 92 min and max output values;
#X obj 99 233 int;
#X msg 155 116 10;
#X msg 502 120 0 10;
#X connect 5 0 14 0;
#X connect 8 0 11 0;
#X connect 8 1 10 0;
#X connect 10 0 15 0;
#X connect 11 0 15 0;
#X connect 12 0 15 0;
#X connect 13 0 4 0;
#X connect 14 0 13 0;
#X connect 14 1 56 0;
#X connect 16 0 17 0;
#X connect 19 0 18 0;
#X connect 22 0 20 0;
#X connect 23 0 21 0;
#X connect 25 0 24 0;
#X connect 26 0 28 0;
#X connect 26 1 29 0;
#X connect 26 2 30 0;
#X connect 26 3 31 0;
#X connect 26 4 32 0;
#X connect 26 5 33 0;
#X connect 26 6 34 0;
#X connect 26 7 35 0;
#X connect 27 0 26 0;
#X connect 36 0 26 1;
#X connect 37 0 26 2;
#X connect 38 0 26 3;
#X connect 39 0 26 4;
#X connect 40 0 26 5;
#X connect 41 0 26 6;
#X connect 42 0 26 7;
#X connect 43 0 54 0;
#X connect 44 0 43 0;
#X connect 46 0 43 3;
#X connect 47 0 43 1;
#X connect 48 0 43 2;
#X connect 50 0 47 0;
#X connect 51 0 50 0;
#X connect 51 0 55 0;
#X connect 54 0 45 0;
#X connect 55 0 48 0;
#X connect 56 0 4 0;
