#N canvas 324 22 956 727 10;
#X msg 83 -41 pinMode 14 analog;
#X msg 103 -22 pinMode 15 analog;
#X msg 127 -4 pinMode 16 analog;
#X obj 272 246 s configPins;
#X obj 60 187 r configPins;
#X obj 265 -55 loadbang;
#X obj 42 254 route analog digital;
#X floatatom 39 515 5 0 0 3 a0 - -;
#X floatatom 73 537 5 0 0 3 a1 - -;
#N canvas 807 101 499 396 display 0;
#X obj 6 7 inlet;
#X obj 6 28 mapping/resample 100;
#X obj 6 50 outlet;
#X obj 54 50 inlet;
#X obj 54 71 mapping/resample 100;
#X obj 54 93 outlet;
#X obj 103 93 inlet;
#X obj 103 114 mapping/resample 100;
#X obj 103 136 outlet;
#X obj 151 136 inlet;
#X obj 151 157 mapping/resample 100;
#X obj 151 179 outlet;
#X obj 200 179 inlet;
#X obj 200 200 mapping/resample 100;
#X obj 200 222 outlet;
#X obj 247 222 inlet;
#X obj 247 243 mapping/resample 100;
#X obj 247 265 outlet;
#X obj 295 265 inlet;
#X obj 295 286 mapping/resample 100;
#X obj 295 308 outlet;
#X obj 345 308 inlet;
#X obj 345 329 mapping/resample 100;
#X obj 345 351 outlet;
#X obj 60 290 receive ARDUINO_TEST_RESET;
#X connect 0 0 1 0;
#X connect 1 0 2 0;
#X connect 3 0 4 0;
#X connect 4 0 5 0;
#X connect 6 0 7 0;
#X connect 7 0 8 0;
#X connect 9 0 10 0;
#X connect 10 0 11 0;
#X connect 12 0 13 0;
#X connect 13 0 14 0;
#X connect 15 0 16 0;
#X connect 16 0 17 0;
#X connect 18 0 19 0;
#X connect 19 0 20 0;
#X connect 21 0 22 0;
#X connect 22 0 23 0;
#X connect 24 0 22 0;
#X connect 24 0 19 0;
#X connect 24 0 16 0;
#X connect 24 0 13 0;
#X connect 24 0 10 0;
#X connect 24 0 7 0;
#X connect 24 0 4 0;
#X connect 24 0 1 0;
#X restore 39 489 pd display values without pegging the CPU;
#X text 62 339 analog inputs:;
#X obj 29 458 s A0;
#N canvas 7 410 450 300 data_filter 0;
#X obj 107 -1072 delta;
#X obj 107 -1040 max 0.5;
#X floatatom 107 -1016 5 0 0 0 - - -;
#X obj 108 -992 > 0.5;
#X obj 105 -913 gate 2;
#X obj 109 -965 + 1;
#X floatatom 107 -941 5 0 0 0 - - -;
#X obj 108 -1108 inlet;
#X obj 104 -877 outlet;
#X connect 0 0 1 0;
#X connect 1 0 2 0;
#X connect 2 0 3 0;
#X connect 3 0 5 0;
#X connect 4 0 8 0;
#X connect 5 0 6 0;
#X connect 6 0 4 0;
#X connect 7 0 0 0;
#X connect 7 0 4 1;
#X restore 29 429 pd data_filter;
#X msg 459 112 pinMode 2 input;
#X obj 265 342 s D2;
#X obj 28 -173 inlet;
#X obj 263 -52 bng 15 250 50 0 empty empty empty 17 7 0 10 -262144
-1 -1;
#X obj 281 365 s D3;
#X obj 67 455 s A1;
#X msg 209 95 pinMode 21 analog;
#X floatatom 282 533 5 0 0 3 a7 - -;
#X obj 55 358 route 0 1 2 3 4 5 6 7;
#X msg 459 134 pinMode 3 input;
#X msg 458 154 pinMode 4 input;
#X msg 458 176 pinMode 5 input;
#X msg 458 195 pinMode 6 input;
#X msg 146 14 pinMode 17 analog;
#X msg 161 33 pinMode 18 analog;
#X msg 177 51 pinMode 19 analog;
#X msg 192 70 pinMode 20 analog;
#X text 116 -69 A0 - A7;
#X floatatom 107 515 5 0 0 3 a2 - -;
#X floatatom 141 536 5 0 0 3 a3 - -;
#X floatatom 177 513 5 0 0 3 a4 - -;
#X floatatom 211 535 5 0 0 3 a5 - -;
#X floatatom 247 514 5 0 0 3 a6 - -;
#X obj 235 314 route 0 1 2 3 4 5 6 7;
#X obj 442 354 r D2;
#X obj 442 384 tgl 15 0 empty empty empty 17 7 0 10 -262144 -1 -1 0
1;
#X obj 477 385 tgl 15 0 empty empty empty 17 7 0 10 -262144 -1 -1 0
1;
#X obj 477 355 r D3;
#X obj 510 385 tgl 15 0 empty empty empty 17 7 0 10 -262144 -1 -1 0
1;
#X obj 545 386 tgl 15 0 empty empty empty 17 7 0 10 -262144 -1 -1 0
1;
#X obj 510 355 r D4;
#X obj 545 356 r D5;
#X obj 578 387 tgl 15 0 empty empty empty 17 7 0 10 -262144 -1 -1 0
1;
#X obj 578 357 r D6;
#X obj 296 343 s D4;
#X obj 312 366 s D5;
#X obj 327 343 s D6;
#X obj 342 366 s D7;
#X obj 258 -124 pipe 1000;
#X obj 258 -143 t b;
#X obj 103 458 s A2;
#X obj 136 459 s A3;
#X obj 172 461 s A4;
#X obj 207 462 s A5;
#X obj 245 463 s A6;
#X obj 287 462 s A7;
#X obj 43 215 pduino/arduino 2;
#X connect 0 0 3 0;
#X connect 1 0 3 0;
#X connect 2 0 3 0;
#X connect 4 0 59 0;
#X connect 5 0 0 0;
#X connect 5 0 1 0;
#X connect 5 0 2 0;
#X connect 5 0 19 0;
#X connect 5 0 13 0;
#X connect 5 0 22 0;
#X connect 5 0 23 0;
#X connect 5 0 24 0;
#X connect 5 0 25 0;
#X connect 5 0 26 0;
#X connect 5 0 27 0;
#X connect 5 0 28 0;
#X connect 5 0 29 0;
#X connect 6 0 21 0;
#X connect 6 1 36 0;
#X connect 9 0 7 0;
#X connect 9 1 8 0;
#X connect 9 2 31 0;
#X connect 9 3 32 0;
#X connect 9 4 33 0;
#X connect 9 5 34 0;
#X connect 9 6 35 0;
#X connect 9 7 20 0;
#X connect 12 0 11 0;
#X connect 13 0 3 0;
#X connect 15 0 52 0;
#X connect 15 0 59 0;
#X connect 16 0 0 0;
#X connect 16 0 1 0;
#X connect 16 0 2 0;
#X connect 16 0 26 0;
#X connect 16 0 27 0;
#X connect 16 0 28 0;
#X connect 16 0 29 0;
#X connect 16 0 19 0;
#X connect 16 0 13 0;
#X connect 16 0 22 0;
#X connect 16 0 23 0;
#X connect 16 0 24 0;
#X connect 16 0 25 0;
#X connect 19 0 3 0;
#X connect 21 0 9 0;
#X connect 21 0 12 0;
#X connect 21 1 9 1;
#X connect 21 1 18 0;
#X connect 21 2 9 2;
#X connect 21 2 53 0;
#X connect 21 3 9 3;
#X connect 21 3 54 0;
#X connect 21 4 9 4;
#X connect 21 4 55 0;
#X connect 21 5 9 5;
#X connect 21 5 56 0;
#X connect 21 6 9 6;
#X connect 21 6 57 0;
#X connect 21 7 9 7;
#X connect 21 7 58 0;
#X connect 22 0 3 0;
#X connect 23 0 3 0;
#X connect 24 0 3 0;
#X connect 25 0 3 0;
#X connect 26 0 3 0;
#X connect 27 0 3 0;
#X connect 28 0 3 0;
#X connect 29 0 3 0;
#X connect 36 2 14 0;
#X connect 36 3 17 0;
#X connect 36 4 47 0;
#X connect 36 5 48 0;
#X connect 36 6 49 0;
#X connect 36 7 50 0;
#X connect 37 0 38 0;
#X connect 40 0 39 0;
#X connect 43 0 41 0;
#X connect 44 0 42 0;
#X connect 46 0 45 0;
#X connect 51 0 16 0;
#X connect 52 0 51 0;
#X connect 59 0 6 0;
