#N canvas 355 25 752 730 10;
#X obj -92 -40 cnv 15 60 22 empty empty empty 20 12 0 14 -253938 -66577
0;
#N canvas 146 163 525 433 serin 0;
#X obj 180 61 cnv 15 15 15 empty \$0-number-canvas 2 4 8 0 14 -233017
-1 0;
#X obj 200 225 s \$0-number-canvas;
#X obj 60 61 hradio 15 1 1 8 empty empty empty 0 -6 0 8 -225271 -1
-1 2;
#X obj 60 13 inlet;
#X msg 200 202 label \$1;
#X obj 200 180 makefilename %d;
#X obj 59 108 int;
#X msg 59 206 open \$1;
#X obj 59 377 outlet;
#X msg 201 306 set \$1 \$2;
#X obj 59 266 trigger bang anything;
#X obj 201 286 list;
#X obj 383 383 outlet;
#X obj 384 22 netreceive 34567;
#X obj 477 43 tgl 15 0 empty empty empty 0 -6 0 10 -262144 -1 -1 0
1;
#X obj 384 41 bng 15 250 50 0 empty empty empty 0 -6 0 10 -262144 -1
-1;
#X obj 187 24 delay 15000;
#X text 345 379 close;
#X text 209 4 for open/close automation in Makefile;
#X obj 184 95 bang;
#X obj 184 137 send ARDUINO_TEST_RESET;
#X msg 184 116 set 0;
#X connect 2 0 6 0;
#X connect 2 0 19 0;
#X connect 3 0 2 0;
#X connect 4 0 1 0;
#X connect 5 0 4 0;
#X connect 6 0 5 0;
#X connect 6 0 7 0;
#X connect 7 0 10 0;
#X connect 9 0 8 0;
#X connect 10 0 8 0;
#X connect 10 1 11 0;
#X connect 11 0 9 0;
#X connect 13 0 15 0;
#X connect 13 1 14 0;
#X connect 15 0 16 0;
#X connect 15 0 12 0;
#X connect 16 0 2 0;
#X connect 19 0 21 0;
#X connect 21 0 20 0;
#X coords 0 -1 1 1 136 17 1 60 60;
#X restore -86 -61 pd serin;
#X text -89 -79 serial port #;
#X msg 6 -38 close;
#X msg -86 -38 open 2;
#X msg -3 -14 devices;
#X obj -86 14 makedo;
#X obj 278 -3 r D2;
#X obj 278 40 tgl 15 0 empty empty empty 17 7 0 10 -262144 -1 -1 0
1;
#X obj 242 33 adc~;
#X obj 182 621 dac~;
#X obj 242 79 md-tremolo~;
#X msg 64 -7 \; pd dsp \$1;
#X obj 64 -28 tgl 15 0 empty empty empty 17 7 0 10 -262144 -1 -1 1
1;
#X obj 64 -71 loadbang;
#X obj 64 -50 del 500;
#X obj 235 335 md-reverb~;
#N canvas 880 322 450 300 output-limit 0;
#X obj 132 136 *~;
#X obj 107 110 z~ 64;
#X obj 147 109 limiter~ 10;
#X obj 106 56 inlet~;
#X obj 133 181 outlet~;
#X obj 250 137 *~;
#X obj 225 111 z~ 64;
#X obj 265 110 limiter~ 10;
#X obj 224 57 inlet~;
#X obj 251 182 outlet~;
#X connect 0 0 4 0;
#X connect 1 0 0 0;
#X connect 2 0 0 1;
#X connect 3 0 1 0;
#X connect 3 0 2 0;
#X connect 5 0 9 0;
#X connect 6 0 5 0;
#X connect 7 0 5 1;
#X connect 8 0 6 0;
#X connect 8 0 7 0;
#X restore 216 555 pd output-limit;
#X obj 183 582 md-bypass~;
#X obj 242 205 md-overdrive~;
#X obj 235 452 md-delay~;
#N canvas 759 333 521 414 in3 0;
#X obj 149 85 tgl 15 0 empty empty empty 17 7 0 10 -262144 -1 -1 0
1;
#X obj 149 59 r D3;
#X obj 122 109 sel 0;
#X obj 122 129 t b;
#X obj 122 155 outlet;
#X connect 0 0 2 0;
#X connect 1 0 0 0;
#X connect 2 0 3 0;
#X connect 3 0 4 0;
#X restore 276 167 pd in3;
#N canvas 640 82 623 462 inA0 0;
#X obj 84 211 md-automap;
#X obj 83 61 r A0;
#X obj 170 160 bng 15 250 50 0 empty empty empty 17 7 0 10 -262144
-1 -1;
#X floatatom 103 170 5 0 0 0 - - -;
#X floatatom 122 147 5 0 0 0 - - -;
#X text 79 43 input data;
#X obj 101 94 loadbang;
#X text 187 156 re-callibrate input;
#X text 170 98 min and max output values;
#X obj 84 248 outlet;
#X msg 103 124 -2;
#X msg 140 122 20;
#X connect 0 0 9 0;
#X connect 1 0 0 0;
#X connect 2 0 0 3;
#X connect 3 0 0 1;
#X connect 4 0 0 2;
#X connect 6 0 10 0;
#X connect 6 0 11 0;
#X connect 10 0 3 0;
#X connect 11 0 4 0;
#X restore 310 31 pd inA0;
#N canvas 640 82 623 462 inA1 0;
#X obj 84 211 md-automap;
#X obj 170 160 bng 15 250 50 0 empty empty empty 17 7 0 10 -262144
-1 -1;
#X floatatom 103 170 5 0 0 0 - - -;
#X floatatom 122 147 5 0 0 0 - - -;
#X text 79 43 input data;
#X msg 103 124 0;
#X obj 101 94 loadbang;
#X text 187 156 re-callibrate input;
#X text 170 98 min and max output values;
#X obj 84 248 outlet;
#X obj 83 61 r A1;
#X msg 140 122 20;
#X connect 0 0 9 0;
#X connect 1 0 0 3;
#X connect 2 0 0 1;
#X connect 3 0 0 2;
#X connect 5 0 2 0;
#X connect 6 0 5 0;
#X connect 6 0 11 0;
#X connect 10 0 0 0;
#X connect 11 0 3 0;
#X restore 345 179 pd inA1;
#N canvas 139 102 623 462 inA2 0;
#X obj 84 211 md-automap;
#X obj 170 160 bng 15 250 50 0 empty empty empty 17 7 0 10 -262144
-1 -1;
#X floatatom 103 170 5 0 0 0 - - -;
#X floatatom 122 147 5 0 0 0 - - -;
#X text 79 43 input data;
#X obj 101 94 loadbang;
#X text 187 156 re-callibrate input;
#X text 170 98 min and max output values;
#X obj 84 248 outlet;
#X obj 83 61 r A2;
#X msg 103 124 -1;
#X msg 140 122 2;
#X connect 0 0 8 0;
#X connect 1 0 0 3;
#X connect 2 0 0 1;
#X connect 3 0 0 2;
#X connect 5 0 10 0;
#X connect 5 0 11 0;
#X connect 9 0 0 0;
#X connect 10 0 2 0;
#X connect 11 0 3 0;
#X restore 341 289 pd inA2;
#N canvas 640 82 623 462 inA3 0;
#X obj 84 211 md-automap;
#X obj 170 160 bng 15 250 50 0 empty empty empty 17 7 0 10 -262144
-1 -1;
#X floatatom 103 170 5 0 0 0 - - -;
#X floatatom 122 147 5 0 0 0 - - -;
#X text 79 43 input data;
#X obj 101 94 loadbang;
#X text 187 156 re-callibrate input;
#X text 170 98 min and max output values;
#X obj 84 248 outlet;
#X msg 140 122 2000;
#X msg 103 124 25;
#X obj 83 61 r A3;
#X connect 0 0 8 0;
#X connect 1 0 0 3;
#X connect 2 0 0 1;
#X connect 3 0 0 2;
#X connect 5 0 10 0;
#X connect 5 0 9 0;
#X connect 9 0 3 0;
#X connect 10 0 2 0;
#X connect 11 0 0 0;
#X restore 315 413 pd inA3;
#N canvas 640 82 623 462 inA4 0;
#X obj 84 211 md-automap;
#X obj 170 160 bng 15 250 50 0 empty empty empty 17 7 0 10 -262144
-1 -1;
#X floatatom 103 170 5 0 0 0 - - -;
#X floatatom 122 147 5 0 0 0 - - -;
#X text 79 43 input data;
#X msg 103 124 0;
#X obj 101 94 loadbang;
#X text 187 156 re-callibrate input;
#X text 170 98 min and max output values;
#X obj 84 248 outlet;
#X obj 83 61 r A4;
#X msg 140 122 1.15;
#X connect 0 0 9 0;
#X connect 1 0 0 3;
#X connect 2 0 0 1;
#X connect 3 0 0 2;
#X connect 5 0 2 0;
#X connect 6 0 5 0;
#X connect 6 0 11 0;
#X connect 10 0 0 0;
#X connect 11 0 3 0;
#X restore 371 412 pd inA4;
#X obj -84 50 loadbang;
#X obj -85 78 del 500;
#X msg -86 103 1;
#X obj -85 133 s startOn;
#X obj 151 263 r startOn;
#X obj 277 585 r startOn;
#N canvas 759 333 521 414 in5 0;
#X obj 122 109 sel 0;
#X obj 122 129 t b;
#X obj 122 155 outlet;
#X obj 123 77 r D5;
#X connect 0 0 1 0;
#X connect 1 0 2 0;
#X connect 3 0 0 0;
#X restore 270 423 pd in5;
#N canvas 759 333 521 414 in4 0;
#X obj 122 109 sel 0;
#X obj 122 129 t b;
#X obj 122 155 outlet;
#X obj 123 77 r D4;
#X connect 0 0 1 0;
#X connect 1 0 2 0;
#X connect 3 0 0 0;
#X restore 262 294 pd in4;
#X obj 460 270 md-distortion~;
#X connect 1 0 4 0;
#X connect 1 1 3 0;
#X connect 3 0 6 0;
#X connect 4 0 6 0;
#X connect 5 0 6 0;
#X connect 7 0 8 0;
#X connect 8 0 11 1;
#X connect 9 0 11 0;
#X connect 9 0 18 0;
#X connect 11 0 19 0;
#X connect 13 0 12 0;
#X connect 14 0 15 0;
#X connect 15 0 13 0;
#X connect 16 0 20 0;
#X connect 17 0 18 1;
#X connect 18 0 10 0;
#X connect 18 0 10 1;
#X connect 19 0 16 0;
#X connect 20 0 17 0;
#X connect 21 0 19 1;
#X connect 22 0 11 2;
#X connect 23 0 19 3;
#X connect 24 0 16 2;
#X connect 25 0 20 2;
#X connect 26 0 20 3;
#X connect 27 0 28 0;
#X connect 28 0 29 0;
#X connect 29 0 30 0;
#X connect 31 0 16 1;
#X connect 32 0 18 2;
#X connect 33 0 20 1;
#X connect 34 0 16 1;
