#N canvas 229 130 465 409 10;
#X obj 165 170 md-mapper;
#X obj 176 111 md-minval;
#X obj 190 139 md-maxval;
#X obj 154 83 inlet;
#X obj 207 45 inlet;
#X obj 254 78 inlet;
#X obj 309 92 inlet;
#X obj 165 215 outlet;
#X text 100 81 data in;
#X text 196 21 min out;
#X text 252 56 max out;
#X text 353 92 reset;
#X obj 296 129 t b;
#X connect 0 0 7 0;
#X connect 1 0 0 1;
#X connect 2 0 0 2;
#X connect 3 0 0 0;
#X connect 3 0 1 0;
#X connect 3 0 2 0;
#X connect 4 0 0 3;
#X connect 5 0 0 4;
#X connect 6 0 1 1;
#X connect 6 0 2 1;
#X connect 6 0 12 0;
#X connect 12 0 0 4;
#X connect 12 0 0 3;
