#N canvas 518 81 762 617 10;
#X obj 366 125 -;
#X obj 190 272 * 1;
#X obj 192 339 + 0;
#X obj 131 15 inlet;
#X obj 240 123 -;
#X floatatom 268 75 5 0 0 0 - - -;
#X obj 302 204 /;
#X obj 349 100 t b;
#X obj 226 98 t b;
#X obj 278 149 t b;
#X obj 295 238 t b;
#X obj 215 14 inlet;
#X obj 267 37 inlet;
#X obj 347 28 inlet;
#X obj 413 55 inlet;
#X text 215 -10 min input;
#X text 265 17 max input;
#X text 412 34 max output;
#X text 344 6 min output;
#X text 133 -6 input;
#X obj 192 385 outlet;
#X floatatom 184 61 5 0 0 0 - - -;
#X obj 155 192 - 0;
#X text 344 217 scale output based on ratio between input and output
ranges;
#X text 62 193 offset input based on min input val;
#X text 435 94 calculate input and output ranges;
#X connect 0 0 6 0;
#X connect 1 0 2 0;
#X connect 2 0 20 0;
#X connect 3 0 22 0;
#X connect 4 0 6 1;
#X connect 4 0 9 0;
#X connect 5 0 4 0;
#X connect 6 0 1 1;
#X connect 6 0 10 0;
#X connect 7 0 0 0;
#X connect 7 0 2 0;
#X connect 8 0 4 0;
#X connect 9 0 6 0;
#X connect 10 0 1 0;
#X connect 11 0 8 0;
#X connect 11 0 4 1;
#X connect 11 0 21 0;
#X connect 12 0 5 0;
#X connect 13 0 7 0;
#X connect 13 0 0 1;
#X connect 13 0 2 1;
#X connect 14 0 0 0;
#X connect 21 0 22 1;
#X connect 22 0 1 0;
