#N canvas 602 82 451 424 10;
#X obj 166 227 mux 1 2;
#X obj 146 123 f;
#X text 193 91 reset;
#X obj 111 55 inlet;
#X obj 158 55 inlet;
#X obj 166 277 outlet;
#X obj 111 184 <;
#X msg 158 91 1;
#X obj 184 128 t b;
#X obj 219 67 loadbang;
#X connect 0 0 5 0;
#X connect 0 0 1 0;
#X connect 1 0 6 1;
#X connect 1 0 0 0;
#X connect 3 0 6 0;
#X connect 3 0 0 1;
#X connect 4 0 7 0;
#X connect 6 0 0 2;
#X connect 7 0 1 0;
#X connect 7 0 8 0;
#X connect 8 0 6 0;
#X connect 9 0 7 0;
