#N canvas 0 22 757 545 10;
#X obj 156 217 mux 1 2;
#X obj 101 174 >;
#X obj 148 119 f;
#X msg 148 81 0;
#X text 183 81 reset;
#X obj 101 45 inlet;
#X obj 148 45 inlet;
#X obj 116 283 outlet;
#X obj 211 59 loadbang;
#X connect 0 0 7 0;
#X connect 0 0 2 0;
#X connect 1 0 0 2;
#X connect 2 0 1 1;
#X connect 2 0 0 0;
#X connect 3 0 2 0;
#X connect 5 0 1 0;
#X connect 5 0 0 1;
#X connect 6 0 3 0;
#X connect 8 0 3 0;
