#N canvas 652 184 462 507 10;
#X obj 68 199 +~ 0.2;
#X obj 71 240 tanh~;
#X obj 71 288 *~ 0.8;
#X obj 70 329 -~ 0.2;
#X floatatom 142 181 5 0 0 0 - - -;
#X obj 31 415 outlet~;
#X obj 56 129 inlet~;
#X obj 30 363 md-bypass~;
#X obj 103 121 tgl 15 0 empty empty empty 17 7 0 10 -262144 -1 -1 0
1;
#X obj 142 126 knob 32 32 0 1 0 0 empty empty gain 0 -8 0 8 -262144
-1 -1 0 1;
#X connect 0 0 1 0;
#X connect 1 0 2 0;
#X connect 2 0 3 0;
#X connect 3 0 7 1;
#X connect 4 0 0 1;
#X connect 4 0 3 1;
#X connect 6 0 0 0;
#X connect 6 0 7 0;
#X connect 7 0 5 0;
#X connect 8 0 7 2;
#X connect 9 0 4 0;
#X coords 0 -1 1 1 85 80 1 100 100;
