#N canvas 496 114 704 596 10;
#X obj 151 163 freeverb~;
#X msg 236 74 damping \$1;
#X obj 264 204 lop~ 1000;
#X obj 160 200 lop~ 1000;
#X floatatom 393 85 5 0 0 0 - - -;
#X msg 380 110 roomsize \$1;
#X obj 87 76 inlet~;
#X obj 91 477 outlet~;
#X obj 176 479 outlet~;
#X floatatom 463 83 5 0 0 0 - - -;
#X obj 463 133 line;
#X msg 464 106 \$1 20;
#X msg 151 115 wet 1;
#X obj 153 88 loadbang;
#X obj 124 262 md-mix2~;
#X obj 345 26 knob 32 32 0 1 0 0 empty empty dry/wet 0 -8 0 8 -262144
-1 -1 775 1;
#X obj 309 30 tgl 15 0 empty empty empty 17 7 0 10 -262144 -1 -1 1
1;
#X obj 309 -26 inlet;
#X obj 345 -42 inlet mix;
#X floatatom 344 91 5 0 0 0 - - -;
#X obj 238 11 knob 32 32 0 0.1 0 0 empty empty damping 0 -8 0 8 -262144
-1 -1 0 1;
#X obj 392 26 knob 32 32 0 1 0 0 empty empty room_size 0 -8 0 8 -262144
-1 -1 2170 1;
#X obj 442 26 knob 32 32 300 15000 1 0 empty empty brightness 0 -8
0 8 -262144 -1 -1 954 1;
#X obj 390 -20 inlet size;
#X obj 462 -21 inlet brightness;
#X obj 227 262 md-mix2~;
#X obj 159 225 lop~ 1000;
#X obj 264 228 lop~ 1000;
#X obj 91 438 md-bypass~;
#X obj 176 437 md-bypass~;
#X floatatom 238 47 5 0 0 0 - - -;
#X text 195 -29 damping doesn't seem to work;
#X obj 372 -97 loadbang;
#X msg 457 -69 1000;
#X msg 404 -68 0.7;
#X msg 351 -68 0.25;
#X connect 0 0 3 0;
#X connect 0 1 2 0;
#X connect 1 0 0 0;
#X connect 2 0 27 0;
#X connect 3 0 26 0;
#X connect 4 0 5 0;
#X connect 5 0 0 0;
#X connect 6 0 0 0;
#X connect 6 0 14 0;
#X connect 6 0 25 0;
#X connect 6 0 28 0;
#X connect 6 0 29 0;
#X connect 9 0 11 0;
#X connect 10 0 3 1;
#X connect 10 0 2 1;
#X connect 10 0 27 1;
#X connect 10 0 26 1;
#X connect 11 0 10 0;
#X connect 12 0 0 0;
#X connect 13 0 12 0;
#X connect 14 0 28 1;
#X connect 15 0 14 2;
#X connect 15 0 19 0;
#X connect 15 0 25 2;
#X connect 16 0 28 2;
#X connect 16 0 29 2;
#X connect 17 0 16 0;
#X connect 18 0 15 0;
#X connect 20 0 30 0;
#X connect 21 0 4 0;
#X connect 22 0 9 0;
#X connect 23 0 21 0;
#X connect 24 0 22 0;
#X connect 25 0 29 1;
#X connect 26 0 14 1;
#X connect 27 0 25 1;
#X connect 28 0 7 0;
#X connect 29 0 8 0;
#X connect 30 0 1 0;
#X connect 32 0 35 0;
#X connect 32 0 34 0;
#X connect 32 0 33 0;
#X connect 33 0 22 0;
#X connect 34 0 21 0;
#X connect 35 0 15 0;
#X coords 0 -1 1 1 200 80 1 300 0;
