#N canvas 155 94 844 654 10;
#X obj 36 189 osc~;
#X obj 34 214 *~ 0.5;
#X obj 31 237 +~ 0.5;
#X obj -63 93 inlet~;
#X obj -113 475 outlet~;
#X obj 129 126 knob 32 32 0 15 0 0 empty empty speed 0 -8 0 8 -262144
-1 -1 0 1;
#X floatatom -61 186 5 0 0 0 - - -;
#X msg -61 164 1;
#X obj -61 141 loadbang;
#X floatatom 177 182 5 0 0 0 - - -;
#X obj -76 329 *~;
#X obj -41 329 *~;
#X obj -58 361 +~;
#X obj 177 125 knob 32 32 0 1 0 0 empty empty depth 0 -8 0 8 -262144
-1 -1 1550 1;
#X obj 16 276 *~;
#X text 125 197 speed;
#X floatatom 129 183 5 0 0 0 - - -;
#X text 214 161 depth;
#X obj 131 77 inlet;
#X obj 192 78 inlet;
#X obj 103 120 tgl 15 0 empty empty empty 17 7 0 10 -262144 -1 -1 0
1;
#X obj -61 224 -~;
#X obj 177 223 line~;
#X msg 177 202 \$1 20;
#X obj 105 54 inlet;
#X text 106 38 bypass;
#X obj -114 411 md-bypass~;
#X obj 153 18 loadbang;
#X msg 151 45 5;
#X msg 196 48 0.5;
#X connect 0 0 1 0;
#X connect 1 0 2 0;
#X connect 2 0 14 1;
#X connect 3 0 10 0;
#X connect 3 0 14 0;
#X connect 3 0 26 0;
#X connect 5 0 16 0;
#X connect 6 0 21 0;
#X connect 7 0 6 0;
#X connect 8 0 7 0;
#X connect 9 0 23 0;
#X connect 10 0 12 0;
#X connect 11 0 12 0;
#X connect 12 0 26 1;
#X connect 13 0 9 0;
#X connect 14 0 11 0;
#X connect 16 0 0 0;
#X connect 18 0 5 0;
#X connect 19 0 13 0;
#X connect 20 0 26 2;
#X connect 21 0 10 1;
#X connect 22 0 11 1;
#X connect 22 0 21 1;
#X connect 23 0 22 0;
#X connect 24 0 20 0;
#X connect 26 0 4 0;
#X connect 27 0 28 0;
#X connect 27 0 29 0;
#X connect 28 0 5 0;
#X connect 29 0 13 0;
#X coords 0 -1 1 1 110 80 1 100 100;
